<svg width="24" height="24" viewBox="0 0 24 24" fill="none" xmlns="http://www.w3.org/2000/svg">
<path d="M20.4 1.19995H3.60001C2.28001 1.19995 1.20001 2.27995 1.20001 3.59995V20.4C1.20001 21.7212 2.28001 22.8 3.60001 22.8H20.4C21.72 22.8 22.8 21.7212 22.8 20.4V3.59995C22.8 2.27995 21.72 1.19995 20.4 1.19995ZM11.9808 18.6276C13.7434 18.6272 15.4338 17.9268 16.68 16.6803C17.9263 15.4338 18.6264 13.7434 18.6264 11.9808C18.6264 11.5752 18.5748 11.184 18.5028 10.8H20.4V19.4592C20.4 19.5682 20.3785 19.6762 20.3366 19.7768C20.2948 19.8775 20.2335 19.969 20.1562 20.0459C20.079 20.1228 19.9873 20.1838 19.8864 20.2252C19.7855 20.2666 19.6774 20.2876 19.5684 20.2872H4.43161C4.32258 20.2876 4.21452 20.2666 4.11364 20.2252C4.01277 20.1838 3.92107 20.1228 3.8438 20.0459C3.76653 19.969 3.70522 19.8775 3.66338 19.7768C3.62155 19.6762 3.60001 19.5682 3.60001 19.4592V10.8H5.45881C5.38561 11.184 5.33401 11.5752 5.33401 11.9808C5.33433 13.7435 6.03472 15.4339 7.28117 16.6804C8.52761 17.9268 10.2181 18.6272 11.9808 18.6276ZM7.82761 11.9808C7.82761 11.4353 7.93504 10.8953 8.14376 10.3914C8.35247 9.8875 8.6584 9.42966 9.04406 9.044C9.42972 8.65834 9.88756 8.35241 10.3915 8.14369C10.8953 7.93498 11.4354 7.82755 11.9808 7.82755C12.5262 7.82755 13.0663 7.93498 13.5702 8.14369C14.0741 8.35241 14.5319 8.65834 14.9176 9.044C15.3032 9.42966 15.6092 9.8875 15.8179 10.3914C16.0266 10.8953 16.134 11.4353 16.134 11.9808C16.134 13.0822 15.6964 14.1386 14.9176 14.9175C14.1387 15.6964 13.0823 16.134 11.9808 16.134C10.8793 16.134 9.82293 15.6964 9.04406 14.9175C8.26518 14.1386 7.82761 13.0822 7.82761 11.9808ZM19.5684 7.19995H17.6304C17.4104 7.19932 17.1995 7.11163 17.0439 6.95603C16.8883 6.80044 16.8006 6.58959 16.8 6.36955V4.42915C16.8 3.97075 17.172 3.59995 17.6292 3.59995H19.5672C20.028 3.59995 20.4 3.97075 20.4 4.42915V6.36835C20.4 6.82555 20.028 7.19995 19.5684 7.19995Z" fill="black"/>
</svg>
