<svg width="24" height="24" viewBox="0 0 24 24" fill="none" xmlns="http://www.w3.org/2000/svg">
<path d="M6.00001 3.59995C6.00001 4.87435 5.14801 5.97115 3.59881 5.97115C2.14081 5.97115 1.20001 4.93675 1.20001 3.66235C1.20001 2.35435 2.11201 1.19995 3.60001 1.19995C5.08801 1.19995 5.97121 2.29195 6.00001 3.59995ZM1.20001 22.8V7.19995H6.00001V22.8H1.20001ZM8.40001 12.5328C8.40001 10.6788 8.33881 9.12955 8.27761 7.79155H12.5904L12.804 9.85915H12.8952C13.5024 8.88595 14.9904 7.45915 17.4816 7.45915C20.52 7.45915 22.8 9.49315 22.8 13.8696V22.8H18V14.5668C18 12.654 17.2716 11.1948 15.6 11.1948C14.3256 11.1948 13.6872 12.2268 13.3524 13.0776C13.23 13.3824 13.2 13.8072 13.2 14.2332V22.8H8.40001V12.5328Z" fill="black"/>
</svg>
