<svg width="24" height="24" viewBox="0 0 24 24" fill="none" xmlns="http://www.w3.org/2000/svg">
<path d="M8 14H16V13.45C16 12.7167 15.6333 12.125 14.9 11.675C14.1667 11.225 13.2 11 12 11C10.8 11 9.83333 11.225 9.1 11.675C8.36667 12.125 8 12.7167 8 13.45V14ZM12 10C12.55 10 13.021 9.80433 13.413 9.413C13.805 9.02167 14.0007 8.55067 14 8C13.9993 7.44933 13.8037 6.97867 13.413 6.588C13.0223 6.19733 12.5513 6.00133 12 6C11.4487 5.99867 10.978 6.19467 10.588 6.588C10.198 6.98133 10.002 7.452 10 8C9.998 8.548 10.194 9.019 10.588 9.413C10.982 9.807 11.4527 10.0027 12 10ZM2 22V4C2 3.45 2.196 2.97933 2.588 2.588C2.98 2.19667 3.45067 2.00067 4 2H20C20.55 2 21.021 2.196 21.413 2.588C21.805 2.98 22.0007 3.45067 22 4V16C22 16.55 21.8043 17.021 21.413 17.413C21.0217 17.805 20.5507 18.0007 20 18H6L2 22ZM5.15 16H20V4H4V17.125L5.15 16Z" fill="black"/>
</svg>
